<svg xmlns="http://www.w3.org/2000/svg" width="24" height="24" viewBox="0 0 24 24">
    <path fill="#000" fill-rule="nonzero" d="M16.91 4.483a9.92 9.92 0 0 1 4.874 8.515c0 5.445-4.43 9.874-9.873 9.874-5.445 0-9.874-4.43-9.874-9.874a9.919 9.919 0 0 1 4.875-8.515.805.805 0 0 1 .816 1.388 8.302 8.302 0 0 0-4.08 7.127c0 4.556 3.707 8.263 8.263 8.263s8.262-3.706 8.262-8.263a8.302 8.302 0 0 0-4.08-7.127.805.805 0 1 1 .817-1.388zm-5-2.433c.445 0 .806.361.806.806v10.142a.805.805 0 1 1-1.61 0V2.856c0-.445.36-.806.805-.806z"/>
</svg>
