<!-- Generated by IcoMoon.io -->
<svg version="1.1" xmlns="http://www.w3.org/2000/svg" width="1024" height="1024" viewBox="0 0 1024 1024">
<title></title>
<g id="icomoon-ignore">
</g>
<path fill="#000" d="M194.259 224.524h26.091v-58.581c0-83.398 67.352-151.316 150.066-151.316h315.054c82.713 0 150.066 67.918 150.066 151.316v58.581h23.779c82.703 0 150.055 67.907 150.055 151.316v244.062c0 83.412-67.352 151.316-150.055 151.316h-23.574v191.857c0 41.594-33.677 75.553-74.924 75.553h-465.325c-41.25 0-74.927-33.959-74.927-75.553v-191.857h-26.307c-82.713 0-150.055-67.905-150.055-151.316v-244.062c0-83.408 67.342-151.316 150.055-151.316zM778.912 165.944c0-51.781-41.877-94.009-93.226-94.009h-314.848c-51.35 0-93.237 42.229-93.237 94.009v58.581h501.311v-58.581zM277.396 963.5c0 9.977 8.2 18.249 18.097 18.249h465.325c9.894 0 18.095-8.272 18.095-18.249v-316.438h-501.516v316.438zM101.022 620.11c0 51.794 41.887 94.023 93.237 94.023h26.091v-67.070h-37.457c-15.784 0-28.415-12.723-28.415-28.64s12.63-28.654 28.415-28.654h694.52c15.784 0 28.415 12.736 28.415 28.654s-12.63 28.64-28.415 28.64h-41.877v67.070h23.779c51.35 0 93.226-42.229 93.226-94.023v-244.062c0-51.781-41.877-94.009-93.226-94.009h-665.057c-51.35 0-93.237 42.229-93.237 94.009v244.062z"></path>
<path fill="#000" d="M710.092 787.988h-361.779c-15.784 0-28.405-12.736-28.405-28.654s12.619-28.642 28.405-28.642h361.779c15.784 0 28.415 12.726 28.415 28.642s-12.835 28.654-28.415 28.654z"></path>
<path fill="#000" d="M346.001 847.831h361.995c15.784 0 28.405 12.736 28.405 28.654s-12.619 28.654-28.405 28.654h-361.779c-15.784 0-28.415-12.736-28.415-28.654s12.63-28.654 28.199-28.654z"></path>
<path fill="#000" d="M194.885 337.003h57.671c15.784 0 28.415 12.734 28.415 28.65s-12.63 28.654-28.415 28.654h-57.671c-15.784 0-28.401-12.736-28.401-28.654s12.617-28.65 28.401-28.65z"></path>
</svg>
