<svg xmlns="http://www.w3.org/2000/svg" xmlns:xlink="http://www.w3.org/1999/xlink" width="120" height="120" viewBox="0 0 120 120">
    <defs>
        <path id="a" d="M0 0h19.5v16H0z"/>
    </defs>
    <g fill="none" fill-rule="evenodd">
        <path fill="#DCE7EB" fill-rule="nonzero" d="M34 108c5.908 4.784 13.8 7.176 23.675 7.176S75.478 112.784 81.46 108H34zM41.324 61c-2.015-18.7 5.375-30.45 22.17-35.244 25.192-7.193 29.88-11.815 33.885-17.062 4.004-5.248 12.703-5.248 10.717 2.235-1.987 7.483-21.167 17.036-24.69 31.346-2.35 9.54-.59 15.782 5.28 18.725H41.324z"/>
        <g transform="translate(32 10)">
            <g transform="translate(20 35)">
                <mask id="b" fill="#fff">
                    <use xlink:href="#a"/>
                </mask>
                <path fill="#4B5A6B" d="M15.111 5.321a1.197 1.197 0 0 0-.068-.007.853.853 0 0 0-.087.002l-.081.014a.937.937 0 0 0-.079.027c-.021.01-1.118.565-3.292 1.668.275-.234.564-.492.82-.803.653-.793 1.013-1.84 1.013-2.95s-.36-2.158-1.013-2.951a3.908 3.908 0 0 0-.068-.08l1.01-1.307a.582.582 0 0 0-.1-.811.568.568 0 0 0-.802.1L11.38-.504a3.133 3.133 0 0 0-1.622-.454 3.13 3.13 0 0 0-1.582.43l-.967-1.25a.568.568 0 0 0-.802-.1.582.582 0 0 0-.099.81L7.29.206a4.007 4.007 0 0 0-.1.116c-.653.793-1.013 1.84-1.013 2.95s.36 2.158 1.013 2.951c.256.31.545.569.858.77-.008.006-1.097-.53-3.267-1.61a1.317 1.317 0 0 0-.061-.026.857.857 0 0 0-.085-.024 1.042 1.042 0 0 0-.082-.01.955.955 0 0 0-.082.002c-.024.003-1.356.234-3.996.693a.577.577 0 0 0-.467.667.574.574 0 0 0 .66.472L4.437 6.5 7.34 7.975c-.06.142-.106.29-.14.444H5.346l-.074.006a.694.694 0 0 0-.117.028.621.621 0 0 0-.055.023l-3.756 1.922a.58.58 0 0 0-.252.776.57.57 0 0 0 .768.255l3.623-1.854H7.2c.07.316.196.611.366.874l-2.41.863a1.25 1.25 0 0 0-.062.027c-.057.032-.065.037-.072.042-.052.04-.059.047-.066.053-.045.048-.05.056-.057.064a1.14 1.14 0 0 0-.047.068l-.03.06-1.625 3.782a.58.58 0 0 0 .524.808c.22 0 .43-.13.524-.348l1.526-3.55 1.754-.628a3.852 3.852 0 0 0-.745 2.312c0 1.929 1.336 3.498 2.977 3.498 1.642 0 2.977-1.57 2.977-3.498 0-.897-.288-1.716-.762-2.336l1.795.643 1.526 3.55a.572.572 0 0 0 .752.3.58.58 0 0 0 .296-.76l-1.625-3.781a1.293 1.293 0 0 0-.03-.06c-.036-.056-.042-.062-.047-.07a1.103 1.103 0 0 0-.057-.062c-.05-.042-.058-.048-.066-.053a1.06 1.06 0 0 0-.072-.043l-.061-.027-2.426-.868c.167-.262.29-.555.36-.869h1.739l3.622 1.854a.571.571 0 0 0 .768-.255.58.58 0 0 0-.252-.776L14.45 8.473c-.053-.024-.06-.026-.068-.029-.04-.013-.049-.015-.058-.017a.658.658 0 0 0-.118-.016h-1.894a2.642 2.642 0 0 0-.136-.434L15.1 6.493l3.73.654a.569.569 0 0 0 .66-.47.577.577 0 0 0-.465-.669l-3.915-.687z" mask="url(#b)"/>
            </g>
            <path fill="#4B5A6B" d="M47.699 27.59l-1.316-2.185-.004-.006a.352.352 0 0 0-.012-.018l-.009-.012a.355.355 0 0 0-.013-.016l-.01-.012a.345.345 0 0 0-.015-.014l-.012-.011-.015-.012a.346.346 0 0 0-.014-.01l-.015-.01a.376.376 0 0 0-.049-.026l-.007-.003-2.17-.88v-.033c.23.067.477.099.735.092.66-.018 1.318-.285 1.856-.752.538-.468.894-1.083 1.003-1.734l.01-.067 1.058-.06a.374.374 0 0 0 .352-.39.364.364 0 0 0-.386-.347l-1.033.06a2.011 2.011 0 0 0-1.338-1.563l.199-.995a.364.364 0 0 0-.29-.431.374.374 0 0 0-.434.294l-.202 1.011h-.098c-.66.018-1.319.286-1.856.753-.538.467-.894 1.083-1.003 1.733a2.386 2.386 0 0 0-.012.74l-.03-.004-.566-2.256L42 20.42a.342.342 0 0 0-.007-.022l-.004-.013a.346.346 0 0 0-.009-.02l-.006-.014a.364.364 0 0 0-.01-.018l-.008-.014a.341.341 0 0 0-.01-.015l-.011-.015-.01-.012a.337.337 0 0 0-.041-.04l-.005-.005-1.998-1.626a.37.37 0 0 0-.52.055.368.368 0 0 0 .05.519l1.904 1.55.509 2.027a1.7 1.7 0 0 0-.275.12l-.78-.899-.007-.006a.367.367 0 0 0-.016-.017l-.011-.01a.341.341 0 0 0-.063-.045l-.013-.007a.363.363 0 0 0-.021-.01l-.008-.004-2.506-1.007a.373.373 0 0 0-.482.206.366.366 0 0 0 .2.479l2.424.974.723.832a1.702 1.702 0 0 0-.269.546l-1.433-.805-.006-.003a.361.361 0 0 0-.018-.009l-.015-.007-.017-.006-.018-.006-.016-.004-.018-.005-.017-.002-.018-.003-.02-.001H39.09l-.016.001-.018.002-.018.003-.017.004a.388.388 0 0 0-.02.005l-.005.002-2.516.805a.373.373 0 0 0-.171.594.367.367 0 0 0 .39.108l2.362-.756 1.042.585a2.473 2.473 0 0 0-1.433.613c-.935.812-1.133 2.12-.441 2.916.691.795 2.014.781 2.949-.031a2.47 2.47 0 0 0 .81-1.353l.444 1.14-1.077 2.235a.367.367 0 0 0 .171.49.373.373 0 0 0 .494-.176l1.147-2.38.003-.006a.376.376 0 0 0 .007-.018c.002-.005.005-.01.006-.016l.006-.017.005-.018.003-.017c.001-.006.003-.012.003-.019l.002-.017.002-.018V27.7v-.018l-.002-.019-.002-.016-.004-.018-.004-.018-.005-.016a.382.382 0 0 0-.006-.02l-.002-.005-.6-1.541a1.7 1.7 0 0 0 .571-.192l.733.843.627 2.535a.367.367 0 0 0 .447.265.373.373 0 0 0 .27-.449l-.648-2.62-.003-.009a.368.368 0 0 0-.007-.023l-.005-.013a.36.36 0 0 0-.008-.02l-.008-.016a.358.358 0 0 0-.02-.033l-.008-.012a.373.373 0 0 0-.014-.019l-.006-.007-.792-.91c.059-.08.11-.163.153-.25l1.951.793 1.254 2.082a.365.365 0 0 0 .506.122.37.37 0 0 0 .128-.506"/>
            <circle cx="58.25" cy="11.25" r="2.25" fill="#4B5A6B" fill-rule="nonzero"/>
            <circle cx="69.5" cy="1.5" r="1.5" fill="#4B5A6B" fill-rule="nonzero"/>
        </g>
        <g transform="translate(8 59)">
            <rect width="101.879" height="42" x="1.142" y="6" stroke="#4B5A6B" stroke-width="2" rx="4"/>
            <rect width="93.985" height="36" x="5" y="8" fill="#D56E22" fill-rule="nonzero" rx="2.4"/>
            <rect width="93.985" height="38.6" x="5.089" y=".4" fill="#F7921E" fill-rule="nonzero" rx="2.4"/>
            <path fill="#D56E22" d="M20.822 27V9.342h5.643c.918 0 1.76.076 2.524.23.766.153 1.431.395 1.998.729a3.557 3.557 0 0 1 1.323 1.336c.316.558.473 1.242.473 2.052 0 .846-.216 1.629-.648 2.349a3.338 3.338 0 0 1-1.809 1.485v.108c.972.216 1.777.67 2.416 1.363.64.694.959 1.634.959 2.822 0 .882-.171 1.647-.513 2.295a4.624 4.624 0 0 1-1.418 1.62c-.603.432-1.318.751-2.146.958-.828.208-1.728.311-2.7.311h-6.102zm3.132-10.368h2.241c1.242 0 2.137-.225 2.686-.675.55-.45.824-1.053.824-1.809 0-.864-.288-1.476-.864-1.836-.576-.36-1.44-.54-2.592-.54h-2.295v4.86zm0 7.938H26.6c1.296 0 2.295-.238 2.997-.715.702-.478 1.053-1.211 1.053-2.201 0-.936-.342-1.615-1.026-2.038-.684-.424-1.692-.635-3.024-.635h-2.646v5.589zm15.93 2.754c-1.17 0-2.115-.355-2.835-1.067-.72-.71-1.08-1.651-1.08-2.821 0-.702.148-1.327.445-1.877.298-.549.765-1.021 1.404-1.417.64-.396 1.45-.729 2.43-.999.982-.27 2.156-.477 3.524-.621a5.004 5.004 0 0 0-.148-.985 2.265 2.265 0 0 0-.406-.837 1.883 1.883 0 0 0-.742-.567c-.306-.136-.684-.203-1.134-.203a5.02 5.02 0 0 0-1.904.378 12.8 12.8 0 0 0-1.822.918l-1.134-2.079a13.281 13.281 0 0 1 2.484-1.215 8.44 8.44 0 0 1 2.97-.513c1.656 0 2.893.49 3.712 1.471.82.982 1.229 2.399 1.229 4.253V27h-2.565l-.216-1.458h-.108a9.74 9.74 0 0 1-1.904 1.269 4.799 4.799 0 0 1-2.2.513zm.999-2.43c.54 0 1.03-.126 1.471-.378.442-.252.914-.612 1.418-1.08v-2.97c-.9.108-1.656.252-2.268.432-.612.18-1.107.382-1.485.608-.378.225-.648.481-.81.769a1.844 1.844 0 0 0-.243.918c0 .594.18 1.026.54 1.296.36.27.819.405 1.377.405zm10.611 7.56c-.36 0-.675-.022-.945-.068a4.544 4.544 0 0 1-.783-.202l.567-2.43c.126.036.274.076.446.121.17.046.337.068.499.068.702 0 1.264-.211 1.688-.635.423-.423.742-.967.958-1.633l.243-.837-5.211-13.095h3.159l2.295 6.507c.198.576.391 1.183.58 1.823.19.639.383 1.273.581 1.903h.108a717.326 717.326 0 0 1 .999-3.726l1.998-6.507h2.997l-4.806 13.851c-.27.756-.567 1.431-.891 2.025a6.625 6.625 0 0 1-1.12 1.526 4.406 4.406 0 0 1-1.459.972c-.549.225-1.183.337-1.903.337zm15.687-5.13c-1.17 0-2.115-.355-2.835-1.067-.72-.71-1.08-1.651-1.08-2.821 0-.702.148-1.327.446-1.877.297-.549.764-1.021 1.403-1.417.64-.396 1.45-.729 2.43-.999.982-.27 2.156-.477 3.524-.621a5.004 5.004 0 0 0-.148-.985 2.265 2.265 0 0 0-.406-.837 1.883 1.883 0 0 0-.742-.567c-.306-.136-.684-.203-1.134-.203a5.02 5.02 0 0 0-1.903.378 12.8 12.8 0 0 0-1.823.918l-1.134-2.079a13.281 13.281 0 0 1 2.484-1.215 8.44 8.44 0 0 1 2.97-.513c1.656 0 2.893.49 3.712 1.471.82.982 1.229 2.399 1.229 4.253V27h-2.565l-.216-1.458h-.108a9.74 9.74 0 0 1-1.903 1.269 4.799 4.799 0 0 1-2.201.513zm.999-2.43c.54 0 1.03-.126 1.471-.378.442-.252.914-.612 1.418-1.08v-2.97c-.9.108-1.656.252-2.268.432-.612.18-1.107.382-1.485.608-.378.225-.648.481-.81.769a1.844 1.844 0 0 0-.243.918c0 .594.18 1.026.54 1.296.36.27.819.405 1.377.405zM77.9 27V13.743h2.565l.216 2.349h.108c.468-.864 1.035-1.525 1.701-1.984.666-.46 1.35-.689 2.052-.689.63 0 1.134.09 1.512.27l-.54 2.7a5.669 5.669 0 0 0-.648-.162 4.16 4.16 0 0 0-.729-.054c-.522 0-1.071.202-1.647.608-.576.405-1.071 1.111-1.485 2.119V27H77.9z"/>
        </g>
        <circle cx="32.5" cy="45.5" r="4.5" fill="#DCE7EB" fill-rule="nonzero"/>
    </g>
</svg>
