<svg xmlns="http://www.w3.org/2000/svg" width="120" height="120" viewBox="0 0 120 120">
    <g fill="none" fill-rule="evenodd">
        <path fill="#DCE7EB" d="M112.747 103.564c0 3.924-23.672 7.105-52.873 7.105C30.672 110.67 7 107.49 7 103.564c0-3.924 23.672-7.105 52.874-7.105 29.2 0 52.873 3.18 52.873 7.105"/>
        <path stroke="#4B5A6B" stroke-width="2" d="M78.618 75.057v20.408H41.124V75.057c0-9.63 6.46-17.544 15.992-18.418.772-.23.772-1.655-.154-1.781-9.458-.947-15.838-8.824-15.838-18.403V16.048h37.494v20.407c0 9.579-6.384 17.456-15.838 18.403-.931.131-.931 1.666-.159 1.78 9.531.875 15.997 8.789 15.997 18.42z"/>
        <path fill="#1795D2" d="M74.054 75.817v14.278c0 .796-.653 1.444-1.46 1.444H47.521c-.806 0-1.46-.648-1.46-1.444V75.817a13.7 13.7 0 0 1 1.952-7.08c.138-.228.279-.45.432-.669 1.283-.923 5.226-2.042 9.97-2.758 4.821-.728 8.98-.814 10.42-.284a13.688 13.688 0 0 1 5.22 10.792"/>
        <path fill="#FFA840" stroke="#4B5A6B" stroke-width="2" d="M80.331 16.048H39.41a.967.967 0 0 1-.974-.961V9.599c0-.53.436-.96.974-.96H80.33c.538 0 .974.43.974.96v5.488c0 .53-.436.96-.974.96M80.331 102.874H39.41a.967.967 0 0 1-.974-.96v-5.488c0-.53.436-.961.974-.961H80.33c.538 0 .974.43.974.96v5.488c0 .53-.436.961-.974.961"/>
        <path fill="#57C8FF" d="M58.904 68.776c-5.674.879-10.406.823-10.675-.124l-.009-.039c-.029-.192.123-.405.43-.63 1.251-.923 5.095-2.042 9.719-2.758 4.7-.728 8.754-.813 10.157-.284.316.118.497.27.523.447.15.982-4.393 2.497-10.145 3.388"/>
        <path fill="#DCE7EB" d="M47.812 23.426h18.776a1.75 1.75 0 0 0 0-3.501H47.812a1.75 1.75 0 1 0 0 3.501z"/>
    </g>
</svg>
