<svg xmlns="http://www.w3.org/2000/svg" width="168" height="166"><g fill="none" fill-rule="evenodd"><path fill="#DCE7EB" d="M151 120c0 12.15-30.445 22-68 22s-68-9.85-68-22 30.445-22 68-22 68 9.85 68 22"/><path fill="#DCE7EB" stroke="#C2D3D9" stroke-linecap="round" stroke-linejoin="round" stroke-width="2" d="M28.833 53.281L87.03 39.505v51.716l-58.196 17.83V86.23z"/><path fill="#FFF" stroke="#C2D3D9" stroke-linecap="round" stroke-linejoin="round" stroke-width="2" d="M87.029 72.911L28.833 53.335v55.904a1 1 0 0 0 .671.945l57.185 19.905.34-57.178z"/><path fill="#C2D3D9" stroke="#C2D3D9" stroke-linecap="round" stroke-linejoin="round" stroke-width="2" d="M137.338 55.512L86.833 39.4v52.441l50.505 16.817z"/><path fill="#FFF" stroke="#C2D3D9" stroke-linecap="round" stroke-linejoin="round" stroke-width="2" d="M86.474 72.712L137.834 56v52.241a1 1 0 0 1-.61.92l-49.359 20.96a1 1 0 0 1-1.39-.92V72.712z"/><path fill="#DCE7EB" d="M70.636 27.054a2.164 2.164 0 0 1 2.968-.687 2.132 2.132 0 0 1 .692 2.948 2.163 2.163 0 0 1-2.968.688 2.132 2.132 0 0 1-.692-2.949m8.534 4.679a2.132 2.132 0 0 0-.692-2.948 2.164 2.164 0 0 0-2.969.687 2.132 2.132 0 0 0 .693 2.948 2.163 2.163 0 0 0 2.968-.687"/><path fill="#C2D3D9" d="M70.826 21.602a3.431 3.431 0 0 1 4.707-1.09 3.38 3.38 0 0 1 1.097 4.675 3.43 3.43 0 0 1-4.707 1.09 3.38 3.38 0 0 1-1.097-4.675m13.114 7.211a3.38 3.38 0 0 0-1.097-4.674 3.43 3.43 0 0 0-4.706 1.09 3.38 3.38 0 0 0 1.097 4.674c1.603.99 3.71.502 4.707-1.09"/><path fill="#4B5A6B" d="M78.771 20.944a.625.625 0 0 1-.857.199.616.616 0 0 1-.2-.851.625.625 0 0 1 .857-.199c.292.18.381.562.2.851m2.437 1.209a.625.625 0 0 1-.857.199.616.616 0 0 1-.2-.852.625.625 0 0 1 .857-.198c.292.18.381.561.2.851m-3.338 5.59c-1.062 1.694-2.585 2.66-3.401 2.155-.817-.504-.619-2.287.442-3.982 1.062-1.695 2.584-2.66 3.401-2.156.817.505.618 2.288-.443 3.983m-7.252 5.567l-.307-.722a18.082 18.082 0 0 1 1.32-.5l.242.744a17.73 17.73 0 0 0-1.255.478m-3.397 2.006l-.46-.635a18.85 18.85 0 0 1 2.284-1.384l.364.694c-.803.416-1.54.861-2.188 1.325zm-2.891 3.11l-.704-.351c.378-.746.934-1.477 1.651-2.17l.55.561c-.655.633-1.159 1.292-1.497 1.96zm-.929 4.28a5.972 5.972 0 0 1-.4-2.102 5.3 5.3 0 0 1 .038-.633l.782.092a4.5 4.5 0 0 0-.032.541 5.2 5.2 0 0 0 .35 1.829l-.738.273zm2.62 3.782a13.728 13.728 0 0 1-1.718-2.058l.657-.432c.424.635.97 1.287 1.62 1.938l-.558.552zm3.515 2.877a30.43 30.43 0 0 1-2.11-1.599l.508-.6a29.387 29.387 0 0 0 2.054 1.558l-.452.64zm3.634 2.58a45.599 45.599 0 0 0-2.089-1.53l.45-.643c.761.526 1.476 1.05 2.126 1.558l-.487.616zm3.24 2.973a20.247 20.247 0 0 0-1.82-1.798l.522-.586c.727.64 1.363 1.268 1.89 1.87l-.593.514zm1.911 3.672c-.048-.684-.327-1.438-.828-2.24l.67-.413c.57.912.887 1.786.944 2.599l-.786.054zm-1.677 3.872l-.4-.674c.81-.475 1.392-1.022 1.73-1.627l.69.38c-.408.728-1.087 1.375-2.02 1.921zm-2.528.972l-.15-.768c.006-.001.55-.107 1.27-.358l.261.739c-.78.27-1.356.382-1.38.387"/><path fill="#DCE7EB" d="M110 73h12v28.407a2 2 0 0 1-1.343 1.889l-9.329 3.242a1 1 0 0 1-1.328-.944V73z"/><path fill="#FFF" stroke="#C2D3D9" stroke-width="2" d="M137.882 56.023l12.908 19.16a1 1 0 0 1-.469 1.492l-46.999 18.169a1 1 0 0 1-1.198-.387L87.689 72.292l50.193-16.269zM86.121 72.228l-17.667 20.68a1 1 0 0 1-1.108.288l-50.469-18.73a1 1 0 0 1-.497-1.471l12.387-19.592 57.354 18.825z"/><circle cx="114.5" cy="22.5" r="2.5" fill="#DCE7EB"/><circle cx="93.5" cy="32.5" r="3.5" fill="#DCE7EB"/><circle cx="123" cy="43" r="1" fill="#DCE7EB"/><circle cx="106" cy="32" r="2" fill="#C2D3D9"/><circle cx="52" cy="36" r="2" fill="#DCE7EB"/><path fill="#C2D3D9" d="M56.903 28.104v-1.99H55V24.99h1.903V23h1.168v1.99h1.904v1.125H58.07v1.99z"/><path fill="#DCE7EB" d="M115.276 38.104v-2.38H113V34.38h2.276V32h1.397v2.38h2.276v1.345h-2.276v2.38z"/></g></svg>