<svg xmlns="http://www.w3.org/2000/svg" width="120" height="120" viewBox="0 0 120 120">
    <g fill="none" fill-rule="evenodd">
        <path fill="#DCE7EB" d="M113.747 106.539c0 3.937-23.672 7.129-52.873 7.129-29.202 0-52.874-3.192-52.874-7.13 0-3.937 23.672-7.129 52.874-7.129 29.2 0 52.873 3.192 52.873 7.13"/>
        <path fill="#231F20" d="M61.979 44.339a.736.736 0 0 0-.73.739c0 .408.327.74.73.74h4.951c.403 0 .73-.332.73-.74a.736.736 0 0 0-.73-.74H61.98zm4.951 1.76H61.98a1.017 1.017 0 0 1-1.009-1.021c0-.563.453-1.022 1.009-1.022h4.951c.556 0 1.009.459 1.009 1.022S67.486 46.1 66.93 46.1z"/>
        <g transform="translate(38.96 7)">
            <rect width="42.022" height="42.004" x="1" y="1" stroke="#4B5A6B" stroke-width="2" rx="2.414"/>
            <path fill="#DCE7EB" d="M2.446 52.22h8.56V2.421h-8.56z"/>
            <path fill="#FFA436" d="M38.059 9.264h-1.837c-.71 0-1.286-.577-1.286-1.29V6.132c0-.712.576-1.29 1.286-1.29h1.837c.71 0 1.285.578 1.285 1.29v1.842c0 .713-.576 1.29-1.285 1.29"/>
            <rect width="12.228" height="26.634" x="14.674" y="12.106" fill="#FFA436" rx="3.621"/>
            <path fill="#FFF" stroke="#4B5A6B" stroke-width="2" d="M36.555 48.347h-17c-.667 0-1.213-.619-1.213-1.376V14.693c0-.757.546-1.376 1.214-1.376h17c.667 0 1.212.62 1.212 1.376v32.278c0 .757-.545 1.376-1.213 1.376"/>
            <path fill="#4B5A6B" d="M18.342 45.77h19.426V18.16H18.342z"/>
        </g>
        <path fill="#1795D2" stroke="#4B5A6B" stroke-linejoin="round" stroke-width="2" d="M25.981 104.21c1.943-21.57 2.17-43.968.876-67.102h67.978a487.633 487.633 0 0 0 .77 67.165l-69.624-.063z"/>
        <path fill="#FFF" stroke="#FFF" stroke-width="2.299" d="M46.443 66.05c-4.138-4.322-6.325-10.465-6.325-17.767 0-.416.332-.753.743-.753.41 0 .743.337.743.753 0 15.278 9.76 22.236 18.827 22.236 9.067 0 18.827-6.958 18.827-22.236 0-.416.333-.753.743-.753s.743.337.743.753c0 7.302-2.187 13.445-6.325 17.766-3.69 3.854-8.658 5.976-13.988 5.976s-10.298-2.122-13.988-5.976z"/>
    </g>
</svg>
