<svg xmlns="http://www.w3.org/2000/svg" width="120" height="120" viewBox="0 0 120 120">
    <g fill="none" fill-rule="evenodd">
        <path fill="#DCE7EB" d="M112.747 107.582c0 3.915-23.672 7.088-52.873 7.088C30.672 114.67 7 111.497 7 107.582c0-3.914 23.672-7.087 52.874-7.087 29.2 0 52.873 3.173 52.873 7.087"/>
        <path fill="#F98128" d="M84.084 12.054a2.164 2.164 0 0 1 2.969-.687 2.132 2.132 0 0 1 .692 2.948 2.163 2.163 0 0 1-2.969.688 2.132 2.132 0 0 1-.692-2.949M92.618 16.733a2.132 2.132 0 0 0-.692-2.948 2.164 2.164 0 0 0-2.969.687 2.132 2.132 0 0 0 .693 2.948c1.01.625 2.34.317 2.968-.687"/>
        <path fill="#FFA631" d="M84.274 6.602a3.431 3.431 0 0 1 4.707-1.09 3.38 3.38 0 0 1 1.097 4.675 3.43 3.43 0 0 1-4.707 1.09 3.38 3.38 0 0 1-1.097-4.675M97.389 13.813a3.38 3.38 0 0 0-1.097-4.674 3.43 3.43 0 0 0-4.707 1.09 3.38 3.38 0 0 0 1.097 4.674c1.603.99 3.71.502 4.707-1.09"/>
        <path fill="#933E65" d="M92.22 5.944a.625.625 0 0 1-.857.199.616.616 0 0 1-.2-.851.625.625 0 0 1 .857-.199c.291.18.38.562.2.851M94.656 7.153a.625.625 0 0 1-.857.199.616.616 0 0 1-.2-.852.625.625 0 0 1 .857-.198c.292.18.381.561.2.851"/>
        <path fill="#4B5A6B" d="M91.317 12.743c-1.06 1.694-2.583 2.66-3.4 2.155-.817-.504-.618-2.287.443-3.982 1.061-1.695 2.584-2.66 3.4-2.156.817.505.619 2.288-.443 3.983M84.065 18.31l-.306-.722c.782-.327 1.297-.493 1.319-.5l.243.744a17.73 17.73 0 0 0-1.256.478M80.668 20.316l-.46-.635c.68-.486 1.448-.951 2.284-1.384l.364.694c-.802.416-1.539.861-2.188 1.325zm-2.891 3.11l-.704-.351c.379-.746.934-1.477 1.651-2.17l.55.561c-.654.633-1.158 1.292-1.497 1.96zm-.928 4.28a5.972 5.972 0 0 1-.4-2.102 5.3 5.3 0 0 1 .037-.633l.783.092a4.5 4.5 0 0 0-.033.541 5.2 5.2 0 0 0 .35 1.829l-.737.273zm2.62 3.782a13.728 13.728 0 0 1-1.718-2.058l.656-.432c.424.635.97 1.287 1.62 1.938l-.558.552zm3.514 2.877a30.43 30.43 0 0 1-2.11-1.599l.508-.6a29.387 29.387 0 0 0 2.054 1.558l-.452.64zm3.634 2.58a45.599 45.599 0 0 0-2.088-1.53l.45-.643c.76.526 1.475 1.05 2.125 1.558l-.487.616zm3.24 2.973a20.247 20.247 0 0 0-1.82-1.798l.522-.586c.727.64 1.363 1.268 1.891 1.87l-.593.514zm1.911 3.672c-.047-.684-.326-1.438-.828-2.24l.67-.413c.57.912.888 1.786.945 2.599l-.787.054zm-1.677 3.872l-.4-.674c.81-.475 1.392-1.022 1.73-1.627l.69.38c-.408.728-1.087 1.375-2.02 1.921zM87.564 48.434l-.15-.768c.005-.001.549-.107 1.27-.358l.26.739c-.78.27-1.356.382-1.38.387"/>
        <g transform="translate(16.747 54.56)">
            <path fill="#EAC096" d="M59.79 53.79h26.716V1.265H59.79z"/>
            <path fill="#9C775D" d="M11.45 51.866h49.128V1.265H11.449z"/>
            <path fill="#7F614C" d="M35.62 51.866h22.899V1.265H35.62z"/>
            <path fill="#7F614C" d="M12.721 48.071h25.443v3.795H12.721z"/>
            <path fill="#BA946C" d="M71.24 53.79h3.816V1.265H71.24z" opacity=".383"/>
            <rect width="78.876" height="51.855" x="6.359" y="1.27" stroke="#4B5A6B" stroke-width="2.541" rx="2.541"/>
            <path fill="#EBC098" stroke="#4B5A6B" stroke-linejoin="round" stroke-width="2" d="M0 53.13h11.45V1.266H0z"/>
            <path fill="#EAC096" stroke="#4B5A6B" stroke-width="2" d="M69.968 52.989H54.702V1.265h15.266z"/>
            <path fill="#EAC096" stroke="#4B5A6B" stroke-width="2" d="M55.2 1H10.951c-.469 0-.913.214-1.205.58l-8.68 10.896a.27.27 0 0 0 .212.44h43.687c.47 0 .913-.215 1.206-.582L55.2 1z"/>
        </g>
    </g>
</svg>
