<svg xmlns="http://www.w3.org/2000/svg" width="24" height="24" viewBox="0 0 24 24">
    <g fill="#fff" fill-rule="evenodd">
        <path d="M21.11 9H7.353V6.5c0-2.812 2.264-5.1 5.047-5.1s5.047 2.288 5.047 5.1c0 .386.31.7.693.7a.696.696 0 0 0 .692-.7c0-3.584-2.885-6.5-6.432-6.5-3.547 0-6.432 2.916-6.432 6.5V9H3.693A.696.696 0 0 0 3 9.7v1.6c0 .386.31.7.693.7a.696.696 0 0 0 .692-.7v-.9h16.032v8.5c0 .386.31.7.692.7a.696.696 0 0 0 .693-.7V9.7c0-.386-.31-.7-.693-.7M21.11 21.4a.696.696 0 0 0-.693.7v.5H4.385v-8.9c0-.386-.31-.7-.692-.7a.696.696 0 0 0-.693.7v9.6c0 .387.31.7.693.7h17.416a.696.696 0 0 0 .693-.7v-1.2c0-.387-.31-.7-.693-.7"/>
        <path d="M13.054 17.015a.703.703 0 0 0-.28.774l.342 1.21h-1.33l.342-1.21a.703.703 0 0 0-.281-.774A1.103 1.103 0 0 1 12.45 15c.6 0 1.088.493 1.088 1.1 0 .367-.181.71-.485.915m-.603-3.415c-1.365 0-2.474 1.121-2.474 2.5 0 .656.253 1.277.696 1.738l-.472 1.67a.706.706 0 0 0 .113.613.69.69 0 0 0 .553.279h3.167a.69.69 0 0 0 .553-.279.705.705 0 0 0 .113-.613l-.472-1.67a2.508 2.508 0 0 0 .697-1.738c0-1.379-1.11-2.5-2.474-2.5"/>
    </g>
</svg>
